<?xml version="1.0" encoding="UTF-8"?>
<svg xmlns="http://www.w3.org/2000/svg" viewBox="0 0 108 108" width="256" height="256">
  <defs>
    <clipPath id="mask">
      <rect x="0" y="0" width="108" height="108" rx="24" ry="24"/>
    </clipPath>
  </defs>
  <g clip-path="url(#mask)">
    <rect width="108" height="108" fill="#1B2D4F"/>
    <path fill="#000000" fill-opacity="0.40" d="M72,35 A20,20 0 1 0 72,67 L64,59 A12,12 0 1 1 64,43 Z"/>
    <path fill="#FDFCFA" d="M70,33 A20,20 0 1 0 70,65 L62,57 A12,12 0 1 1 62,41 Z"/>
    <path fill="#FFFFFF" fill-opacity="0.55" d="M70,33 A20,20 0 0 0 38,49 L40,49 A18,18 0 0 1 69,35 Z"/>
    <path fill="#FFFFFF" fill-opacity="0.85" d="M44,40 Q47,37 51,37 Q49,42 45,43 Q42,42 44,40 Z"/>
    <path fill="#000000" fill-opacity="0.18" d="M42,52 Q48,62 62,57 L62,54 Q50,58 44,50 Z"/>
    <path fill="#EEE3CB" d="M40,71 H68 V75 H40 Z"/>
    <path fill="#000000" fill-opacity="0.30" d="M40,75 H68 V77 H40 Z"/>
  </g>
</svg>
